# xmcd CD database file
#
# Track frame offsets:
#	150
#	11692
#	25025
#	39700
#	53302
#	69845
#	85417
#	98235
#	113647
#	130667
#	146552
#	161262
#	176615
#	190795
#	204152
#	216632
#	231107
#	244667
#	259095
#	273540
#	287800
#	301157
#	315462
#	331557
#
# Disc length: 4607 seconds
#
# Revision: 0
# Processed by: cddbd v1.5.1PL0 Copyright (c) Steve Scherf et al.
# Submitted via: CDex 1.51
#
DISCID=4011fd18
DTITLE=Various Artist - Harlem Big Bands
DYEAR=1900
DGENRE=Jazz
TTITLE0=Don't Forget You'll Regret Day by Day
TTITLE1=Meddlin' With the Blues
TTITLE2=Paradise Wobble
TTITLE3=Birmingham Black Bottom
TTITLE4=Don't You Leave Me Here
TTITLE5=You Ain't the One
TTITLE6=Charleston Is the Best Dance After All
TTITLE7=Hot-Tempered Blues
TTITLE8=The Boy in the Boat (The Rock)
TTITLE9=Walk That Thing
TTITLE10=Harlem Drag
TTITLE11=Hot Bones and Rice
TTITLE12=Harlem Shuffle
TTITLE13=Symphonic Scronch (Symphonic Screach)
TTITLE14=Happy Hour Blues
TTITLE15=Lawd, Lawd
TTITLE16=In a Corner
TTITLE17=Bright Boy Blues
TTITLE18=Springfield Stomp
TTITLE19=You Rascal You
TTITLE20=Goin' to Town
TTITLE21=Say the Word
TTITLE22=Freakish Blues
TTITLE23=I Found a New Baby
EXTD=
EXTT0=
EXTT1=
EXTT2=
EXTT3=
EXTT4=
EXTT5=
EXTT6=
EXTT7=
EXTT8=
EXTT9=
EXTT10=
EXTT11=
EXTT12=
EXTT13=
EXTT14=
EXTT15=
EXTT16=
EXTT17=
EXTT18=
EXTT19=
EXTT20=
EXTT21=
EXTT22=
EXTT23=
PLAYORDER=
